<?xml version="1.0" encoding="UTF-8"?>
<!DOCTYPE svg PUBLIC "-//W3C//DTD SVG 1.1//EN" "http://www.w3.org/Graphics/SVG/1.1/DTD/svg11.dtd">
<!-- Creator: CorelDRAW -->
<svg xmlns="http://www.w3.org/2000/svg" xml:space="preserve" width="220mm" height="80mm" version="1.1" style="shape-rendering:geometricPrecision; text-rendering:geometricPrecision; image-rendering:optimizeQuality; fill-rule:evenodd; clip-rule:evenodd"
viewBox="0 0 22000 8000"
 xmlns:xlink="http://www.w3.org/1999/xlink"
 xmlns:xodm="http://www.corel.com/coreldraw/odm/2003"
 enable-background="new 0 0 1430 500">
 <defs>
  <style type="text/css">
   <![CDATA[
    .fil0 {fill:black;fill-rule:nonzero}
    .fil1 {fill:#4D5090;fill-rule:nonzero}
    .fil2 {fill:white;fill-rule:nonzero}
   ]]>
  </style>
 </defs>
 <g id="Capa_x0020_1">
  <metadata id="CorelCorpID_0Corel-Layer"/>
  <g>
   <path class="fil0" d="M21493.33 3852.97c-14.68,42.49 -35.08,78.92 -43.11,117.89 -55.5,269.33 -174.66,507.08 -343.7,722.79 -137.12,174.97 -310.4,306.06 -503.25,408.09 -173.01,91.54 -357.96,158.95 -555.54,180.37 -102.62,11.12 -205.77,30.2 -308.21,27.56 -258.12,-6.64 -510.53,-49.3 -748.8,-155.76 -8.33,-3.73 -18.74,-2.79 -33.86,-4.77 0,498.12 0,993.35 0,1493.75 -295.16,0 -585.05,0 -880.08,0 0,-1563.6 0,-3131.03 0,-4703.63 288.01,0 579.92,0 874.32,0 1.2,26.68 2.38,52.96 3.28,72.97 132.29,-40.97 263.27,-85.06 396.25,-121.92 209.84,-58.16 423.05,-53.94 637.98,-30.82 222,23.88 431.51,89.11 625.66,194.01 347.78,187.91 605.76,463.46 744.97,836.77 54.04,144.92 82.54,299.37 128.38,451.55 5.71,144.32 5.71,286.59 0.71,436.97 -1.66,21.98 1.67,35.84 5,49.7 0,6.53 0,13.06 0,24.48l0 0zm-2357.95 431.33c206.88,150.67 433.41,215.15 691.19,177.66 190.33,-27.69 358.27,-100.54 491.99,-232.92 252.05,-249.53 337.52,-556.16 246.76,-898.67 -67.23,-253.68 -224.47,-447.32 -464.45,-563.09 -186.64,-90.03 -384.55,-105.87 -587.59,-69.69 -213.56,38.04 -383.31,151.29 -523.35,311 -23.67,26.99 -35.24,73.18 -35.6,110.66 -2.82,295.99 -1.88,592.01 -1.01,888.02 0.07,25.46 7.9,50.9 12.15,76.35 16.05,96.08 102.76,135.85 169.91,200.68z"/>
  </g>
  <path class="fil0" d="M12660.57 333.39c6.88,922.4 6.88,1844.79 6.88,2789.21 35.21,-50.61 61.29,-84.78 83.91,-121.11 212.25,-340.94 423.42,-682.55 636.95,-1022.68 12.88,-20.52 43.14,-42.64 65.49,-42.82 310.77,-2.54 621.58,-1.39 932.37,-0.83 3.76,0 7.5,4.06 20.31,11.45 -305.68,485.78 -610.98,970.98 -919.63,1461.49 392.28,601.24 785.9,1204.51 1184.54,1815.5 -337.26,0 -660.09,-1.52 -982.89,1.67 -47.25,0.46 -62.3,-28.87 -79.84,-55.91 -133.78,-206.23 -265.15,-414.03 -397.91,-620.93 -166.02,-258.75 -332.59,-517.14 -499.11,-775.57 -9.78,-15.19 -21.16,-29.36 -42.11,-58.21 0,512.01 0,1006.65 0,1505.1 -300.76,0 -595.51,0 -897.88,0 0,-1624.33 0,-3248.46 0,-4879.48 294.01,-6.88 588.02,-6.88 888.92,-6.88z"/>
  <path class="fil1" d="M493.33 1940.97c1318.18,-6.88 2636.36,-6.88 3959.78,-6.88 0,272.99 0,542.95 0,819.76 -1041.93,0 -2084.97,0 -3134.95,0 0,819.83 0,1632.91 0,2455.06 -274.94,0 -543,0 -817.95,0 -6.88,-1087.02 -6.88,-2174.04 -6.88,-3267.94z"/>
  <path class="fil0" d="M8296.73 7676.04c-39.68,-77.57 -5.21,-115.81 63.89,-154.5 86.24,-48.28 100.15,-127.82 62.56,-218.43 -62.96,-151.78 -123.77,-304.45 -186.71,-459.74 7.68,-1.72 13.4,-4.05 19.15,-4.14 115.79,-1.83 114.65,-1.37 153.38,108.84 33.42,95.08 69.83,189.1 111.7,301.88 29.92,-84.33 54.34,-152.99 78.63,-221.7 9.41,-26.58 18.71,-53.2 27.77,-79.9 37.77,-111.33 37.73,-111.34 161.87,-107.48 -58.79,152.12 -115.09,302.42 -175.12,451.21 -31.48,78.03 -66.33,155.09 -105.5,229.51 -36.55,69.45 -93.64,119.59 -171.67,149.31 -12.41,5.14 -23.42,5.14 -39.95,5.14z"/>
  <path class="fil2" d="M21493.33 3822.98c-3.33,-8.35 -6.66,-22.21 -5,-37.31 5,9.78 5,20.79 5,37.31z"/>
  <g>
   <path class="fil0" d="M6230.96 1959.21c267.61,-102.7 542.06,-136.19 818.22,-108.84 164.74,16.32 325.59,74.58 487.25,117.54 44.64,11.86 85.9,36.46 134.29,57.67 2.09,-31.31 3.81,-57.06 5.83,-87.23 293.99,0 588.91,0 888.77,0 0,1091.49 0,2185.48 0,3285.24 -276.67,0 -552.46,1.62 -828.13,-3.06 -22.3,-0.38 -43.85,-44.06 -64.95,-66.76 -127.05,35.25 -268.86,78.86 -412.84,113.44 -175.92,42.25 -353.11,52.3 -535.55,33.23 -178.99,-18.71 -349.97,-57.45 -517.22,-120.35 -293.87,-110.51 -531.41,-294.01 -720.91,-543.81 -164.73,-217.15 -268.48,-461.89 -315.51,-726.78 -25.62,-144.3 -26.96,-295.56 -18.51,-442.49 8.13,-141.33 36.8,-282.49 67.63,-421.23 41.47,-186.67 133.08,-352.76 243.8,-506.6 157.5,-218.83 359.6,-388.32 599.5,-511.3 51.98,-26.65 108.94,-43.61 168.33,-68.67l0 0zm1443.48 1509.49c0,-100.29 -5.69,-201.01 1.8,-300.75 6.03,-80.32 -15.56,-146.56 -67.14,-203.9 -23.74,-26.4 -54.78,-46.25 -82.54,-69.03 -250.57,-205.71 -537.43,-265.9 -844.92,-180.31 -533.04,148.38 -731.28,665.6 -605.47,1114.58 120.13,428.69 465.07,649.2 890.21,643.14 205.66,-2.93 393.1,-77.37 556.23,-205.97 108.35,-85.42 170.04,-186.16 155.06,-335.74 -14.78,-147.74 -3.23,-298.11 -3.23,-462.02z"/>
  </g>
  <path class="fil0" d="M16510.66 4368.77c107.67,-100.96 134.36,-230.08 134.99,-361.64 3.26,-687.46 1.52,-1374.95 1.52,-2067.74 290.75,0 580.57,0 876.97,0 1.11,13.49 3.95,31.87 3.96,50.26 0.22,724.21 11.87,1448.67 -4.36,2172.51 -9.15,407.88 -189.68,740.98 -551.9,959.12 -176.33,106.19 -367.59,158.79 -570.39,175.38 -86.68,7.09 -174.29,19.05 -260.46,13.39 -262.5,-17.27 -517.48,-66.99 -740.59,-218.77 -234.79,-159.72 -386.55,-381.51 -453.73,-654.52 -31.71,-128.85 -44.19,-265.27 -45.05,-398.4 -4.35,-672.79 -2,-1345.63 -2,-2018.46 0,-26.43 0,-52.86 0,-82.44 294.67,0 584.46,0 881.12,0 0,27.42 0,53.55 0,79.67 0,670.38 -1.81,1340.77 1.2,2011.13 0.8,179.96 64.53,336.43 241.24,412.15 147.52,63.21 297.66,54.58 436.79,-35.77 15.86,-10.29 31.16,-21.44 50.69,-35.87z"/>
  <path class="fil0" d="M10141.58 3506.81c0,574.38 0,1141.59 0,1712.79 -293.41,0 -583.2,0 -877.06,0 0,-1091.87 0,-2184.21 0,-3281.04 288.36,0 578.16,0 873.13,0 0,106.78 0,215.69 0,344.44 153.85,-216.15 359.41,-318.16 596.37,-345.21 159.41,-18.2 322.58,-3.47 489.17,-3.47 0,290.6 0,580.49 0,880.88 -146.25,0 -296.91,-5.05 -447.03,1.91 -89.3,4.15 -181.74,15.45 -265.73,44.16 -187.62,64.11 -300.45,202.16 -338.56,396.72 -15.57,79.48 -20.51,161.04 -30.29,248.82z"/>
  <path class="fil0" d="M2064.65 4357.16c0,-281.1 0,-554.87 0,-832.84 268.53,0 533.91,0 803.5,0 0,562.95 0,1126.89 0,1695.05 -264.33,0 -529.7,0 -803.5,0 0,-284.25 0,-569.56 0,-862.21z"/>
  <path class="fil0" d="M3885.69 3520.1c197.89,0 388.44,0 583.16,0 0,567.18 0,1131.12 0,1699.28 -264.35,0 -529.72,0 -799.31,0 0,-562.97 0,-1126.91 0,-1699.28 68.79,0 138.8,0 216.15,0z"/>
  <g>
   <path class="fil0" d="M9321.77 7034.76c30.89,-27.25 58.14,-50.37 85.25,-73.36 -75.77,-167.92 -65.77,-284.72 39.47,-339.31 91.44,-47.43 200.13,-42.98 273.77,53.56 44.78,58.72 35.72,128.89 4.47,183.3 -30.21,52.59 -86.41,90.25 -135.64,138.86 50.38,58.96 105.42,123.39 169.33,198.18 25.74,-77.2 49.39,-148.11 74.02,-221.95 29.06,0 65,0 114.99,0 -37.36,103.46 -72.19,199.91 -108.11,299.38 32.65,39.39 70.35,84.89 114.81,138.55 -80.85,-3.35 -157.75,22.85 -200.19,-60.69 -227.92,105.77 -337.37,103.46 -440.11,-11.75 -53.87,-60.41 -86.36,-173.59 7.94,-304.77l0 0zm145.84 283.45c86.06,49.39 148.33,-6.53 219.51,-42.64 -76.53,-83.27 -147.56,-160.56 -218.54,-237.8 -118.59,110.38 -118.99,205.01 -0.97,280.44l0 0zm1.19 -577.71c9.84,58.29 19.69,116.58 30.77,182.2 81.95,-39.68 140.99,-77.87 138.82,-152.86 -0.81,-28.38 -39.44,-70.76 -68.48,-78.65 -25.08,-6.82 -60.99,26.18 -101.11,49.31z"/>
  </g>
  <g>
   <path class="fil0" d="M7962.22 6841.5c32.66,-2.23 59.35,-2.23 79.41,-2.23 0,209.57 8.92,417.79 -3.4,624.74 -7.2,120.9 -92.23,172.83 -213.09,194.29 -63.79,11.33 -134.39,-1.61 -199.49,-15.19 -79.71,-16.64 -53.31,-73.65 -34.16,-122.47 98.15,36.31 197.58,78.47 293.58,-4.52 49.69,-42.96 50.15,-56.72 24.27,-125.31 -227.17,54.31 -302.8,1.86 -368.1,-134.74 -68,-142.25 -10.76,-323.77 94.94,-398.2 70.26,-49.48 230.82,-63.01 313.95,35.22 2.19,-17.61 4.16,-33.48 12.09,-51.59l0 0zm-23.44 216.77c-19.63,-127.38 -139.77,-187.12 -232.57,-109.08 -86.91,73.08 -109.1,252.71 -3.45,335.92 87.32,68.78 190.44,36.14 221.65,-71.92 12.97,-44.93 10.06,-94.45 14.37,-154.92z"/>
  </g>
  <g>
   <path class="fil0" d="M10655.46 6604.02c119.51,-6.14 225.64,9.44 291.82,113.25 101.03,158.47 -23.66,377.95 -216.96,385.8 -41.34,1.68 -82.81,0.25 -130.02,0.25 0,100.8 0,199.85 0,303.61 -40.84,0 -76.2,0 -116.31,0 0,-257.19 0,-517.63 0,-790.71 52.48,-3.9 108.44,-8.05 171.47,-12.2l0 0zm-58.61 368.84c34.66,66.15 91.69,30.27 137.96,26 71.26,-6.58 124.43,-73.6 126.35,-145.84 1.76,-66.65 -43.29,-136.51 -102.89,-144.49 -52.53,-7.02 -106.73,-1.47 -161.45,-1.47 0,91.84 0,172 0.03,265.8z"/>
  </g>
  <path class="fil0" d="M15255.16 7099.04c-71.31,-37.15 -138.84,-69.98 -206.1,-103.35 -80.92,-40.15 -110.32,-116.52 -101.9,-194.75 9.56,-88.85 55.72,-170.55 156.31,-186 75.49,-11.59 154.74,-14.52 230.33,-5.18 76.85,9.48 77.56,26.82 25.06,128.46 -70.17,-37.31 -145.03,-67.59 -220.75,-24.57 -31.21,17.73 -66.38,55.98 -69.45,87.82 -2.9,30.16 26.7,74.01 54.71,94.28 50.77,36.75 109.12,65.08 167.64,88.62 116.54,46.86 149.63,154.26 135.97,249.36 -14.39,100.27 -112.07,184.88 -219.67,191.76 -95.53,6.12 -191.75,5.76 -278.93,-53.21 10.7,-31.2 21.61,-62.99 28.27,-82.4 77.56,12.36 144.3,25 211.58,33.13 59.63,7.21 102.29,-23.27 127.02,-75.02 26.89,-56.28 10.12,-105.11 -40.09,-148.95z"/>
  <path class="fil0" d="M4267.47 6603.99c86.04,4.17 165.83,8.35 251.49,12.84 -17.08,54.3 -27.32,86.86 -31.69,100.74 -75.24,-4.39 -145.22,-19.66 -210.33,-7.92 -36.62,6.6 -88.11,55.73 -91.14,89.46 -3.18,35.46 35.57,86.56 70.05,110.94 60.7,42.91 134.02,67.43 198.6,105.5 131.37,77.42 113.89,298.93 -16.55,368.04 -115.68,61.29 -252.47,59.96 -394.69,-12.12 11.74,-30.9 23.75,-62.51 35.76,-94.12 2.15,7.78 4.3,15.57 6.44,23.35 80.64,4.86 161.33,14.07 241.91,13.21 65.69,-0.7 92.8,-59.53 90.19,-108.48 -2.15,-40.2 -35.26,-89.37 -69.37,-114.83 -55.7,-41.55 -123.16,-67.48 -186.06,-99.21 -85.55,-43.14 -110.42,-120.73 -97.69,-204.67 12.52,-82.54 55.05,-152.37 149.93,-169.09 15.94,-2.81 31.28,-8.99 53.15,-13.64z"/>
  <g>
   <path class="fil0" d="M16650.2 7096.24c5.31,194.23 -70.09,282.91 -205.77,320.43 -193.12,53.4 -351.71,-72.4 -355.99,-258.39 -2.21,-96.03 12.94,-181.52 77.77,-259.57 69.74,-83.95 223.24,-91.83 306.75,-62.51 122.92,43.15 173.45,124.68 177.24,260.04l0 0zm-245.49 228.12c15.16,-5.63 33.15,-7.78 45,-17.45 79.11,-64.55 100.12,-164.94 67.28,-274.17 -20.91,-69.57 -65.84,-108.68 -133.06,-119.23 -72.35,-11.35 -113.88,36.02 -149.28,91.66 -44.28,69.59 -34.37,141.96 -12.54,213.78 23.64,77.8 92.4,120.35 182.6,105.41z"/>
  </g>
  <g>
   <path class="fil0" d="M11128.04 7067.51c29.59,-100.75 61,-196.1 167.6,-227.52 186.72,-55.04 337.91,6.05 343.77,239.05 0.5,19.53 0.07,39.07 0.07,65.98 -131.78,0 -262.61,0 -393.13,0 -3.54,131.53 104.32,204.44 217.74,184.79 30.24,-5.24 60.02,-19.08 89.82,-18.56 17.66,0.31 41.55,17.49 50.22,33.71 6.36,11.89 -1.58,43.05 -13.21,51.15 -130.92,91.06 -379.75,21.46 -435.63,-126.71 -22.77,-60.39 -20.4,-130.27 -27.25,-201.89l0 0zm282.97 -8.25c36.24,0 72.48,0 108.77,0 -1.64,-83.09 -36.55,-136.92 -91.66,-146.71 -89.38,-15.87 -141.86,24.5 -184.17,146.71 52.37,0 102.65,0 167.06,0z"/>
  </g>
  <g>
   <path class="fil0" d="M13269.54 7017.31c2.23,17.85 3.54,29.74 6.83,41.06 19.19,66.06 3.27,88.67 -64.53,88.9 -112.02,0.38 -224.05,0.1 -336.01,0.1 0.28,117.75 91.98,207.59 231.15,176.96 25.47,-5.6 52.22,-11.37 77.67,-9.1 19,1.7 51.93,15.83 52.17,25.1 0.53,20.89 -10.68,56.22 -25.33,61.12 -119.47,39.98 -240.33,43.8 -350.68,-25.65 -73.86,-46.48 -116.57,-203.84 -102.54,-277.16 10.07,-52.61 22.64,-107.57 48.01,-153.85 63.11,-115.12 174.69,-136.33 290.75,-118.29 98.67,15.33 153.17,87.26 172.51,190.81l0 0zm-311.88 41.95c68.95,0 137.9,0 209.37,0 -42.56,-130.48 -62.93,-149.81 -148.41,-146.85 -71.27,2.46 -114.11,47.07 -139.1,146.85 21.99,0 43.32,0 78.14,0z"/>
  </g>
  <g>
   <path class="fil0" d="M17614.94 7426.39c-138.43,8.76 -237.36,-37.69 -293.4,-163.54 -66.21,-148.7 -1.8,-355.93 140.91,-419.76 113.23,-50.64 297.05,-26.92 335.22,139.71 1.55,6.75 7.5,12.46 9.18,19.21 35.18,141.18 31.82,145.36 -114.74,145.36 -92.66,0 -185.31,0 -278.2,0 7.03,113.21 69.6,170.95 173.11,182.1 42.95,4.63 87.71,-10.81 131.65,-10.82 19.68,0 39.37,15.49 59.05,23.95 -12.06,22.01 -19.23,56.28 -37.2,63.44 -36.5,14.55 -78.85,14.43 -125.58,20.35l0 0zm-145.12 -477.68c-17.03,33.74 -34.06,67.47 -54.31,107.59 106.43,0 196.09,0 286.54,0 -40.95,-146.16 -108.66,-180.39 -232.23,-107.59z"/>
  </g>
  <g>
   <path class="fil0" d="M5909.36 6912.41c-59.27,9.87 -112.23,19.73 -165.77,29.71 -7.83,-22.15 -14.69,-41.53 -25.82,-72.99 40.07,-14.85 79.47,-36.45 121.24,-43.07 47.61,-7.55 97.49,-4.16 146.11,-1.14 61.16,3.79 136.29,74.11 146.83,135.35 6.85,39.82 13.81,80.17 14.54,120.4 1.99,109.21 0.68,218.48 0.68,342.27 -48.72,-13.91 -87.33,-24.93 -126.08,-35.99 -45.63,11.78 -98.69,34.45 -152.87,37.58 -108.7,6.28 -162.72,-33.72 -185.71,-135.33 -17.13,-75.69 9.9,-158.83 102.16,-198.74 74.28,-32.14 157.94,-42.61 240.61,-63.49 -14.24,-47.99 -22.14,-115.36 -115.92,-114.56l0 0zm76.09 389.24c19.24,-58.51 38.48,-117.02 59.08,-179.65 -54.12,4.84 -87.08,6.65 -119.72,10.95 -57.97,7.64 -110.52,33.74 -121.84,91.99 -5.55,28.54 19.81,70.65 43.03,95.59 43.49,46.71 87.04,1.85 139.45,-18.88z"/>
  </g>
  <g>
   <path class="fil0" d="M7174.91 7147.37c-82.34,0 -157.38,0 -232.93,0 15,166.92 128.86,221.43 333.24,161.88 52.92,67.2 47.91,89.13 -35.62,100.9 -69.95,9.85 -142.92,14.05 -212.76,5.68 -165.08,-19.77 -236.52,-240.29 -179.97,-410.43 57.38,-172.64 242.06,-222.54 378.57,-153.51 70.7,35.75 99.14,98.99 110.21,171.13 5.82,37.92 1.03,77.47 1.03,124.35 -53.39,0 -103.94,0 -161.77,0l0 0zm-116.61 -234.74c-66.77,24.88 -102.06,74.12 -111.06,144.09 93.37,0 186.81,0 280.77,0 -26.86,-123.54 -49.46,-143.93 -169.71,-144.09z"/>
  </g>
  <path class="fil0" d="M12610.47 6648.11c-99.3,36.19 -111.41,60.1 -99.16,190.41 39.78,0 80.21,0 123.64,0 0,30.97 0,56.48 0,87.53 -41.56,0 -81.89,0 -127.59,0 0,162.94 0,320.51 0,481.83 -40.53,0 -75.8,0 -116.65,0 0,-157 0,-314.62 0,-476.95 -30.55,-2.24 -56.11,-4.12 -87.41,-6.41 -1.15,-25.24 -2.32,-50.88 -3.71,-81.54 28.22,-2.16 54,-4.13 80.99,-6.2 7.59,-53.01 8.83,-108.59 24.33,-159.86 28.6,-94.63 188.53,-161.46 269.56,-110.91 16.86,10.52 9.28,60.21 14.2,102.38 -33.29,-9.35 -52.73,-14.81 -78.2,-20.28z"/>
  <path class="fil0" d="M13745.34 6915.94c-106.03,24.68 -193.04,131.21 -181.63,218.98 20.38,156.87 88.79,193.53 330.87,174.98 6.34,25.51 12.87,51.74 20.31,81.69 -112.48,49.17 -227.29,58.38 -335.61,-2.58 -115.83,-65.19 -159.41,-221.99 -114.43,-370.28 35.16,-115.92 142.55,-195.36 267.28,-193.75 47.36,0.61 94.75,7.99 141.88,14.13 28.82,3.75 53.73,9.75 31.31,50.56 -13.72,24.98 -4.28,67.03 -57.51,41.19 -28.58,-13.87 -64.56,-12.48 -102.47,-14.92z"/>
  <path class="fil0" d="M14093.33 6839.01c109.24,4.84 26.36,-81.13 59.98,-111.3 35.07,-11.64 70.14,-23.27 110.86,-36.78 0,48.04 0,93.03 0,146.13 51.88,0 99.04,0 147.92,0 0,33.63 0,59.14 0,90.25 -47.99,0 -93.19,0 -143.93,0 0,105 -9.22,205.62 2.81,303.64 10.35,84.36 -1.61,90.44 136.19,95.79 16.26,97.88 14.71,96.61 -80.58,100.43 -118.11,4.73 -169.61,-59.02 -174.96,-180.67 -4.59,-104.3 -0.95,-208.96 -0.95,-318.78 -30.63,0 -56.21,0 -100.67,0 15.01,-36.33 25.82,-62.51 43.33,-88.71z"/>
  <path class="fil0" d="M15927.56 6869.31c3,39.21 0.87,64.6 -44.32,58.57 -30.93,-4.13 -62.84,-0.79 -102.35,-0.79 0,106.99 -3.36,211.29 1.38,315.21 2.48,54.37 28.36,96.41 96.61,81.72 13.56,-2.92 28.28,-0.42 60.04,-0.42 -14.23,39.55 -16.35,83.65 -38.19,98.27 -46.8,31.32 -166.52,1.14 -192.78,-46.86 -22.84,-41.73 -39.74,-91.23 -42.76,-138.35 -6.36,-99.57 -1.93,-199.84 -1.93,-305.28 -27.29,-2.24 -52.8,-4.33 -85.18,-6.98 -1.2,-24.07 -2.48,-49.72 -4.08,-81.73 27.66,-1.86 53.44,-3.59 86.03,-5.78 1.62,-33.89 3.32,-69.37 5.21,-109.01 35.63,-11.62 72.62,-23.68 115.23,-37.57 0,50.48 0,96.12 0,135.27 52.9,13.27 99.98,25.08 147.09,43.73z"/>
  <path class="fil0" d="M4925.86 7313.78c16.22,6.43 28.33,10.44 39.99,9.4 42.29,-3.8 79.57,1.89 79.1,54.64 -0.45,51.57 -42.56,46.51 -77.28,48.54 -132.38,7.77 -181.69,-43.54 -185.66,-182.55 -2.92,-102.27 -0.57,-204.7 -0.57,-312.44 -27.35,-2.24 -52.85,-4.33 -85.18,-6.98 -1.2,-24.13 -2.48,-49.8 -4.07,-81.72 27.64,-1.86 53.41,-3.59 86.17,-5.79 1.54,-33.84 3.15,-69.28 4.96,-108.92 35.63,-11.65 72.6,-23.74 115.15,-37.66 0,50.4 0,95.99 0,147.16 49.61,0 94.83,0 143.64,0 0,31.08 0,56.6 0,87.66 -44.85,0 -90.12,0 -153.58,0 11.38,132.34 22.19,258.14 37.33,388.66z"/>
  <path class="fil0" d="M6367.62 6838.98c19.16,-9.6 39.7,-17.46 42.17,-29.15 5.42,-25.59 1.68,-53.11 1.68,-81.48 37.14,-12.2 72.24,-23.74 113.14,-37.18 0,47.52 0,92.47 0,145.65 52.13,0 99.3,0 148.33,0 0,33.78 0,59.32 0,90.54 -48,0 -93.39,0 -143.94,0 0,110.17 -2.08,214.79 0.76,319.28 1.79,66.16 18.2,74.49 139.04,80.08 -10.58,34.25 -10.75,77.47 -31.87,94.1 -41.65,32.83 -166.82,1.61 -190.51,-43.75 -18.05,-34.54 -31.83,-75.21 -33.37,-113.72 -4.39,-109.5 -1.54,-219.28 -1.54,-334.43 -29.53,0 -55.09,0 -90.58,0 16.14,-35 -33.03,-84.1 46.69,-89.94z"/>
  <path class="fil0" d="M16867.45 7044.67c0,-70.61 0,-133.91 0,-214.17 45.02,12.42 82.48,22.76 128.65,35.5 38.67,-14.35 94.46,-35.05 160.56,-59.58 0,49.75 0,80.36 0,111.65 -135.19,33.84 -171.7,80.63 -171.72,222.47 -0.01,87.68 -0.01,175.37 -0.01,267.09 -38.65,0 -73.98,0 -117.48,0 0,-117.73 0,-236.68 0,-362.96z"/>
  <path class="fil0" d="M5368.85 7206.51c0,70.46 0,133.68 0,201.04 -38.47,0 -73.76,0 -117.78,0 0,-186.78 0,-375.15 0,-565.93 25.78,0 59.47,0 99.1,0 2.13,15.6 4.47,32.81 5.09,37.37 57.83,-22.77 116.64,-45.93 186.15,-73.29 0,57.56 0,93.32 0,128.79 -102.15,-22.12 -170.39,69.52 -172.38,147.47 -1,39.08 -0.18,78.21 -0.18,124.55z"/>
  <path class="fil0" d="M11859.76 7103.35c0,-91.34 0,-175.34 0,-261.83 25.83,0 59.53,0 99.92,0 1.52,15.79 3.17,32.85 3.62,37.57 58.46,-22.95 117.25,-46.04 186.62,-73.27 0,55.2 0,88.62 0,114.87 -38.42,14.65 -86.47,19.69 -112.36,46.3 -30.21,31.04 -54.33,79.88 -57.68,122.83 -8.11,104.09 -2.64,209.23 -2.64,317.9 -38.81,0 -74.11,0 -117.48,0 0,-98.32 0,-197.68 0,-304.37z"/>
 </g>
</svg>
