<svg width="183" height="53" viewBox="0 0 183 53" fill="none" xmlns="http://www.w3.org/2000/svg">
<path d="M54.9502 19.2368H66.0663C71.2366 19.2368 73.8505 22.5401 73.8505 27.3657C73.8505 32.5072 70.4611 35.3222 65.3195 35.3222H61.2982V41.1244H54.9789V19.2368H54.9502ZM61.2694 24.522V30.238H64.8599C66.5833 30.238 67.6174 29.1753 67.6174 27.2795C67.6174 25.9007 66.8419 24.522 64.8312 24.522H61.2694Z" fill="#1E22AA"/>
<path d="M76.5506 19.2368H88.2125C93.1817 19.2368 95.6807 22.3103 95.6807 26.7337C95.6807 29.8646 94.4168 32.0764 92.2625 33.2828L95.8243 41.1244H88.9019L86.1444 34.4604H82.6975V41.1244H76.4932V19.2368H76.5506ZM82.7262 24.3497V29.5199H86.8337C88.4423 29.5199 89.3902 28.5721 89.3902 26.9061C89.3902 25.5273 88.7008 24.3784 86.9199 24.3784H82.7262V24.3497Z" fill="#1E22AA"/>
<path d="M99.2119 19.2368H105.531V41.1244H99.2119V19.2368Z" fill="#1E22AA"/>
<path d="M115.356 29.0604L115.614 41.1244H109.927V19.2368H116.677L122.881 33.9434L129.057 19.2368H136.008V41.1244H130.091L130.378 28.5146L124.978 41.1244H120.612L115.356 29.0604Z" fill="#1E22AA"/>
<path d="M152.754 38.1945H145.114L144.252 41.1244H137.99L145.286 19.2368H152.812L160.108 41.1244H153.673L152.754 38.1945ZM146.492 33.4838H151.376L148.934 25.4124L146.492 33.4838Z" fill="#1E22AA"/>
<path d="M171.481 34.4317L167.489 41.1244H160.71L168.035 30.1231L161.083 19.2368H168.494L172.228 26.0444L175.876 19.2368H182.655L175.56 29.9795L183 41.1531H175.56L171.481 34.4317Z" fill="#1E22AA"/>
<path d="M54.9494 1.37063C54.9494 1.80149 54.7484 2.20362 54.4324 2.43341C53.5994 3.12279 44.8961 10.4186 33.2342 23.5742L31.2523 20.7018C30.6203 19.8113 29.615 19.2369 28.4373 19.2369H19.2457L27.1735 30.6402C23.066 35.552 18.7574 41.1819 14.3627 47.2139C8.12958 44.5426 0.000732542 41.1819 0.000732542 34.3169C-0.200334 20.7305 41.0471 3.78343 53.1685 0.0493359C54.2601 -0.209179 54.9494 0.595091 54.9494 1.37063ZM32.5448 38.3382C31.1086 40.751 28.9831 44.8298 26.915 51.0629C33.3778 52.9299 37.9736 51.9246 38.7205 51.781C39.6109 51.5799 40.2428 50.8618 40.2428 49.9714C40.2428 49.5692 40.0992 49.1671 39.8694 48.8799L32.5448 38.3382Z" fill="url(#paint0_radial)"/>
<defs>
<radialGradient id="paint0_radial" cx="0" cy="0" r="1" gradientUnits="userSpaceOnUse" gradientTransform="translate(2.70218 35.3902) scale(29.8988)">
<stop stop-color="#FFB81C"/>
<stop offset="0.85" stop-color="#FF6900"/>
</radialGradient>
</defs>
</svg>
